<svg id="Capa_1" enable-background="new 0 0 512 512" height="512" viewBox="0 0 512 512" width="512" xmlns="http://www.w3.org/2000/svg"><g><circle cx="123.188" cy="397.766" fill="#daa985" r="35.835"/><g fill="#e7c7af"><path d="m158.022 510.978c-18.449-4.576-29.694-23.243-25.117-41.693 5.08-20.479 17.246-60.922 30.615-82.602 9.976-16.179 31.181-21.207 47.362-11.23 16.18 9.977 21.207 31.182 11.23 47.362-6.126 9.933-16.382 38.805-22.396 63.047-4.568 18.412-23.205 29.702-41.694 25.116z"/><path d="m285.849 485.862c-6.015-24.242-16.271-53.114-22.396-63.047-9.977-16.18-4.95-37.385 11.23-47.362s37.385-4.948 47.362 11.23c13.369 21.68 25.535 62.124 30.615 82.602 4.577 18.45-6.669 37.117-25.117 41.693-18.448 4.578-37.116-6.663-41.694-25.116z"/><path d="m306.953 323.041c-18.816-2.7-31.881-20.143-29.18-38.958 2.7-18.816 20.141-31.877 38.958-29.18 3.967.56 17.695-.164 41.222-7.018 21.525-6.274 36.582-13.383 41.451-16.632 15.816-10.554 37.183-6.285 47.733 9.526 10.55 15.812 6.286 37.183-9.526 47.733-26.961 17.991-94.543 39.724-130.658 34.529z"/></g><path d="m374.8 335.916c0-65.134-59.106-117.935-132.018-117.935s-132.018 52.801-132.018 117.935 59.106 103.554 132.018 103.554 132.018-38.42 132.018-103.554z" fill="#e1b89a"/><path d="m122.797 286.673c32.253 22.572 73.375 34.43 119.985 34.43s87.733-11.858 119.985-34.43c-20.885-40.542-66.752-68.691-119.985-68.691-53.233-.001-99.101 28.149-119.985 68.691z" fill="#daa985"/><path d="m319.27 311.443c0-45.813-34.245-82.951-76.489-82.951s-76.489 37.138-76.489 82.951 34.245 72.836 76.489 72.836 76.489-27.024 76.489-72.836z" fill="#fbf1cf"/><path d="m166.354 308.826c23.078 8.1 48.786 12.276 76.427 12.276 27.642 0 53.35-4.176 76.428-12.276-1.277-44.599-34.993-80.335-76.428-80.335-41.433.001-75.15 35.736-76.427 80.335z" fill="#fae0bd"/><path d="m159.022 366.477c-18.82-16.387-36.967-39.383-52.477-66.502-9.438-16.5-3.712-37.528 12.788-46.965 16.498-9.438 37.528-3.713 46.964 12.788 14.822 25.915 28.807 40.823 37.927 48.765 14.336 12.483 15.838 34.223 3.355 48.558-12.5 14.358-34.244 15.82-48.557 3.356z" fill="#e7c7af"/><path d="m335.638 88.546c-8.841-9.405-14.268-22.058-14.268-35.985 0-29.028 23.533-52.561 52.562-52.561 21.221 0 39.491 12.583 47.791 30.688-25.519 23.85-54.434 47.367-86.085 57.858z" fill="#e1b89a"/><path d="m421.723 30.688c3.054 6.662 4.77 14.066 4.77 21.874 0 29.029-23.533 52.562-52.562 52.562-15.102 0-28.706-6.378-38.294-16.577 24.642-49.338 61.641-59.095 86.086-57.859z" fill="#fbf1cf"/><path d="m335.638 88.546c14.116-28.264 32.286-43.523 49.83-51.183-5.084 24.7 8.354 49.996 17.755 58.844-8.37 5.629-18.447 8.915-29.292 8.915-15.101.001-28.706-6.377-38.293-16.576z" fill="#fae0bd"/><path d="m149.926 88.546c8.842-9.405 14.268-22.058 14.268-35.985 0-29.028-23.533-52.561-52.562-52.561-21.221 0-39.491 12.583-47.792 30.688 25.52 23.85 54.435 47.367 86.086 57.858z" fill="#e1b89a"/><path d="m63.84 30.688c-3.054 6.662-4.77 14.066-4.77 21.874 0 29.029 23.533 52.562 52.562 52.562 15.102 0 28.706-6.378 38.293-16.577-24.64-49.338-61.64-59.095-86.085-57.859z" fill="#fbf1cf"/><path d="m149.926 88.546c-14.116-28.264-32.286-43.523-49.83-51.183 5.084 24.7-8.354 49.996-17.755 58.844 8.37 5.629 18.447 8.915 29.292 8.915 15.101.001 28.705-6.377 38.293-16.576z" fill="#fae0bd"/><path d="m397.69 159.87c0-75.935-69.355-137.493-154.909-137.493s-154.908 61.558-154.908 137.493 61.658 130.328 154.909 130.328 154.908-54.393 154.908-130.328z" fill="#e7c7af"/><path d="m242.782 236.848c24.46 0 50.329-11.387 50.329-37.653 0-24.388-28.551-84.59-50.329-84.59s-50.329 60.201-50.329 84.59c-.001 26.265 25.868 37.653 50.329 37.653z" fill="#fae0bd"/><g><g fill="#fff"><ellipse cx="155.802" cy="171.184" rx="32.094" ry="25.558"/><ellipse cx="329.761" cy="171.184" rx="32.094" ry="25.558"/></g><g fill="#4e5660"><path d="m174.507 154.081c-4.143 0-7.5-3.357-7.5-7.5v-13.119c0-4.143 3.357-7.5 7.5-7.5s7.5 3.357 7.5 7.5v13.119c0 4.143-3.358 7.5-7.5 7.5z"/><path d="m311.057 154.081c-4.142 0-7.5-3.357-7.5-7.5v-13.119c0-4.143 3.358-7.5 7.5-7.5 4.143 0 7.5 3.357 7.5 7.5v13.119c0 4.143-3.358 7.5-7.5 7.5z"/><path d="m242.782 211.301c-9.066 0-17.688-3.927-23.655-10.772-2.722-3.123-2.396-7.86.727-10.582 3.122-2.721 7.86-2.396 10.582.727 3.117 3.577 7.617 5.628 12.347 5.628s9.229-2.051 12.346-5.628c2.72-3.123 7.458-3.447 10.582-.727 3.122 2.722 3.448 7.459.727 10.582-5.968 6.845-14.589 10.772-23.656 10.772z"/><path d="m242.782 173.361c5.666 0 13.572-4.985 13.572-10.145 0-3.771-5.455-5.1-13.572-5.1s-13.572 1.329-13.572 5.1c0 5.16 7.906 10.145 13.572 10.145z"/></g></g></g></svg>