<svg id="Capa_1" enable-background="new 0 0 512 512" height="512" viewBox="0 0 512 512" width="512" xmlns="http://www.w3.org/2000/svg"><g><g><path d="m173.04 249.375c-17.637-25.993-91.876-59.584-159.47-17.147-13.184 8.277-17.453 25.517-9.73 39.033l20.877 36.54c5.504 9.634 19.075 10.292 25.589 1.31 22.51-31.04 76.035-50.733 94.463-40.777z" fill="#64768e"/><path d="m92.646 276.179c20.645-9.72 41.844-13.399 52.124-7.846l28.271-18.958c-9.771-14.4-36.918-31.125-70.678-35.97 2.561 13.393-.18 42.355-9.717 62.774z" fill="#565e75"/><path d="m379.635 413.777c21.293 0 44.181-12.233 57.451-34.798-22.57-34.414-43.539-49.958-80.019-70.35-16.172-9.042-36.616-3.259-45.658 12.916-9.041 16.174-3.259 36.616 12.916 45.658 26.436 14.778 39.948 23.848 55.31 46.574z" fill="#daa985"/><path d="m440.797 384.774c-1.245-1.995-2.48-3.916-3.712-5.795-23.44.237-49.89 22.287-57.451 34.798 1.391 2.057 2.795 4.215 4.227 6.511 9.77 15.665 30.448 20.554 46.225 10.711 15.724-9.807 20.518-30.503 10.711-46.225z" fill="#565e75"/><path d="m185.99 386.786c-46.277-3.804-80.71-44.403-76.905-90.681 3.803-46.277 44.389-80.688 90.68-76.907 19.449 1.6 54.882 4.512 68.141 1.73 37.671-22.973 87.196-12.884 112.727 23.823 26.513 38.12 17.103 90.517-21.018 117.029-49.973 34.754-114.102 29.895-173.625 25.006z" fill="#e1b89a"/><path d="m380.631 244.751c-25.531-36.707-75.055-46.796-112.727-23.823-5.082 1.066-13.424 1.294-22.872 1.082 7.166 15.988 18.168 30.322 32.602 42.143 47.546 38.943 106.809 31.995 113.185 32.828 1.598 0 3.169-.003 4.74-.006.916-17.95-3.871-36.328-14.928-52.224z" fill="#daa985"/><path d="m427.483 101.101c-12.576-53.56-120.728-75.754-176.036-33.043-50.453 38.962-67.298 110.059-33.438 152.925 14.836 18.782 32.718 37.205 33.852 58.256.506 9.388 9.881 15.735 18.658 12.367 26.072-10.003 58.553-32.301 54.188-85.165z" fill="#64768e"/><path d="m508.973 219.047c-15.712 48.663-63.728 47.022-130.599 47.022s-112.16-38.821-112.16-90.135c0-51.315 34.948-87.445 101.819-87.445 75.988-.001 161.191 67.839 140.94 130.558z" fill="#e7c7af"/><path d="m334.078 45.834c44.156 2.411 85.882 23.227 93.405 55.267 5.115 17.36-1.764 29.576-14.745 34.953-4.628 1.917-9.832-.955-10.947-5.839-8.769-38.422-58.407-41.392-73.851-36.52z" fill="#64768e"/><g fill="#e1b89a"><path d="m363.879 98.306c0 18.341-12.712 23.416-28.392 23.416s-28.393-5.075-28.393-23.416 12.502-59.577 39.291-59.577c17.494 0 17.494 41.237 17.494 59.577z"/><path d="m179.583 318.743c-18.17-3.608-35.838 8.19-39.451 26.365-5.809 29.215-10.216 44.833-26.418 65.907 14.578 25.075 34.125 37.269 53.475 40.562 23.068-29.99 30.987-54.297 38.759-93.383 3.614-18.174-8.189-35.837-26.365-39.451z"/><path d="m312.164 438.805c15.784 0 44.11-7.055 64.049-20.235-9.827-35.566-24.295-56.443-50.259-85.905-12.252-13.901-33.452-15.241-47.357-2.989-13.903 12.252-15.241 33.454-2.988 47.357 19.891 22.57 29.625 35.586 36.555 61.772z"/></g><path d="m312.164 438.805c.678 2.562 1.33 5.243 1.961 8.078 4.027 18.099 21.96 29.484 40.04 25.461 18.088-4.025 29.487-21.952 25.461-40.04-1.075-4.831-2.211-9.386-3.413-13.735-22.8-2.997-52.012 10.209-64.049 20.236z" fill="#64768e"/><path d="m113.714 411.014c-1.763 2.294-3.662 4.65-5.722 7.097-11.932 14.178-10.113 35.343 4.064 47.276 14.245 11.988 35.401 10.044 47.276-4.064 2.802-3.329 5.413-6.569 7.857-9.747-9.808-14.934-35.371-32.02-53.475-40.562z" fill="#64768e"/></g><g><g><ellipse cx="353.433" cy="182.724" fill="#fff" rx="30.241" ry="24.082"/></g><g fill="#4e5660"><path d="m371.058 167.042c-4.143 0-7.5-3.357-7.5-7.5v-12.362c0-4.143 3.357-7.5 7.5-7.5s7.5 3.357 7.5 7.5v12.362c0 4.143-3.358 7.5-7.5 7.5z"/><path d="m446.302 230.809c-8.667 0-16.91-3.754-22.614-10.299-2.722-3.122-2.397-7.86.726-10.581 3.122-2.723 7.86-2.398 10.581.726 2.855 3.275 6.977 5.154 11.308 5.154s8.452-1.879 11.308-5.154c2.72-3.122 7.458-3.449 10.581-.726 3.123 2.721 3.447 7.459.726 10.581-5.706 6.545-13.949 10.299-22.616 10.299z"/></g></g></g></svg>