<svg id="Capa_1" enable-background="new 0 0 512 512" height="512" viewBox="0 0 512 512" width="512" xmlns="http://www.w3.org/2000/svg"><g><path d="m44.599 9.821 41.176 172.437 95.808-118.23c-37.208-54.207-136.984-54.207-136.984-54.207z" fill="#ffb19e"/><path d="m44.599 9.821c0 63.942-26.133 81.151-37.208 111.625-29.121 80.127 37.208 111.625 37.208 111.625l41.176-50.813c30.06-74.071-41.176-172.437-41.176-172.437z" fill="#8f4d29"/><path d="m467.401 9.821-41.176 172.437-95.807-118.23c37.207-54.207 136.983-54.207 136.983-54.207z" fill="#f07f73"/><path d="m467.401 9.821c0 63.942 26.133 81.151 37.208 111.625 29.121 80.127-37.208 111.625-37.208 111.625l-41.176-50.813c-30.06-74.071 41.176-172.437 41.176-172.437z" fill="#8f4d29"/><path d="m479.25 307.489c0 123.3-99.95 186.04-223.25 186.04s-223.25-62.74-223.25-186.04 99.95-260.46 223.25-260.46 223.25 137.16 223.25 260.46z" fill="#f9c5b9"/><path d="m479.25 307.489c0 123.3-99.95 186.04-223.25 186.04v-446.5c123.3 0 223.25 137.16 223.25 260.46z" fill="#ffb19e"/><g><path d="m368.81 427.759c0 51.37-50.51 74.42-112.81 74.42s-112.81-23.05-112.81-74.42 50.51-111.62 112.81-111.62 112.81 60.25 112.81 111.62z" fill="#ffb19e"/></g><path d="m368.81 427.759c0 51.37-50.51 74.42-112.81 74.42v-186.04c62.3 0 112.81 60.25 112.81 111.62z" fill="#f07f73"/><path d="m172.143 219.784h30v30h-30z" fill="#8f4d29"/><path d="m309.857 219.784h30v30h-30z" fill="#66341a"/><path d="m275.429 386.823h30v45.428h-30z" fill="#66341a"/><path d="m206.571 386.823h30v45.428h-30z" fill="#8f4d29"/></g></svg>