<svg id="Capa_1" enable-background="new 0 0 508.051 508.051" height="512" viewBox="0 0 508.051 508.051" width="512" xmlns="http://www.w3.org/2000/svg"><g><path d="m239.025 25.525v107.649h15l5-53.649-5-54z" fill="#dce8ff"/><path d="m254.025 25.525h15v107.648h-15z" fill="#deddf4"/><path d="m203.555 300.522-123.423-83.889v-149.47h-30v165.353l129.109 87.754h-67.969l-94.751-62.516-16.521 25.041 102.268 67.475h87.901l-67.933 49.472v71.612h30v-56.348l87.262-63.549z" fill="#454040"/><path d="m508.051 282.795-16.522-25.041-94.751 62.516h-67.969l129.11-87.754v-165.353h-30v149.47l-123.423 83.889-35.943 50.935 87.261 63.549v56.348h30v-71.613l-67.932-49.471h87.902z" fill="#1e1205"/><path d="m207.543 401.281h30v81.244h-30z" fill="#454040"/><path d="m270.508 401.281h30v81.244h-30z" fill="#1e1205"/><path d="m203.025 381.525c0 28.122 22.879 51 51 51l15-51-15-51c-28.121 0-51 22.879-51 51z" fill="#d20041"/><path d="m254.025 330.525v102c28.122 0 51-22.878 51-51s-22.878-51-51-51z" fill="#ae2538"/><path d="m187.41 139.596c4.632 3.833 1.616 19.929 1.616 19.929s-17.829 5.365-23.698.811c-16.134 19.739-25.826 44.938-25.826 72.362 0 58.053 43.419 106.152 99.488 113.538-.299-29.798 11.491-51.347 15.036-57.145l22-91.566-22-79.352c-24.829.001-47.835 7.946-66.616 21.423z" fill="#544f57"/><path d="m342.724 160.336c-5.003 3.883-23.698-.811-23.698-.811s-2.107-16.848 1.616-19.929c-18.781-13.477-41.787-21.422-66.616-21.422v170.917c.626-1.023 1-1.566 1-1.566s14.334 29.019 14.036 58.71c56.069-7.386 99.488-55.484 99.488-113.538 0-27.422-9.693-52.621-25.826-72.361z" fill="#454040"/><path d="m221.498 177.1c-12.266-17.576-24.685-29.72-34.088-37.504-8.243 5.915-15.671 12.896-22.082 20.74 7.844 6.087 20.307 17.416 32.667 35.523 18.391 26.942 40.236 74.784 40.995 150.376 4.922.648 9.94.988 15.036.988v-102.413c-9.255-29.56-21.433-51.813-32.528-67.71z" fill="#ff3f5c"/><path d="m320.641 139.596c-9.403 7.783-21.822 19.928-34.089 37.503-11.095 15.897-23.273 38.15-32.527 67.71v102.414c5.096 0 10.114-.339 15.036-.988.759-75.592 22.604-123.434 40.994-150.376 12.36-18.107 24.824-29.436 32.668-35.523-6.411-7.844-13.838-14.825-22.082-20.74z" fill="#d20041"/></g></svg>